<svg width="168" height="48" viewBox="0 0 168 48" fill="none" xmlns="http://www.w3.org/2000/svg">
  <rect x="1" y="1" width="46" height="46" rx="13" fill="#06070A" stroke="rgba(255,255,255,0.14)" stroke-width="2"/>
  <rect x="8.5" y="8.5" width="31" height="31" rx="10" fill="#11141B" stroke="#33E0D3" stroke-width="2.4"/>
  <circle cx="24" cy="24" r="8.5" fill="#33E0D3"/>
  <circle cx="24" cy="24" r="4.2" fill="#06070A"/>
  <path d="M13.5 26.5H17.8L20.1 20.8L24 31.3L27.6 16.6L30.5 26.5H35" stroke="#FFB84D" stroke-width="2.8" stroke-linecap="round" stroke-linejoin="round"/>
  <circle cx="38" cy="10" r="6.5" fill="#FF4F86" stroke="#06070A" stroke-width="2.4"/>
  <path d="M60.56 34V14.4H69.156C73.412 14.4 76.156 16.976 76.156 20.868C76.156 24.788 73.412 27.392 69.156 27.392H65.068V34H60.56ZM65.068 23.584H68.456C70.416 23.584 71.592 22.576 71.592 20.868C71.592 19.188 70.416 18.208 68.456 18.208H65.068V23.584ZM85.69 34.28C81.322 34.28 78.102 31.06 78.102 26.58C78.102 22.1 81.322 18.88 85.69 18.88C90.086 18.88 93.278 22.1 93.278 26.58C93.278 31.06 90.086 34.28 85.69 34.28ZM85.69 30.696C87.622 30.696 89.022 29.044 89.022 26.58C89.022 24.116 87.622 22.464 85.69 22.464C83.758 22.464 82.358 24.116 82.358 26.58C82.358 29.044 83.758 30.696 85.69 30.696ZM96.249 34V13.28H100.477V34H96.249ZM104.374 34V13.28H108.602V34H104.374ZM119.118 34.28C114.498 34.28 111.334 31.2 111.334 26.58C111.334 22.1 114.386 18.88 118.754 18.88C122.954 18.88 125.894 21.848 125.894 26.104C125.894 26.636 125.838 27.196 125.782 27.588H115.534C115.842 29.744 117.158 30.92 119.174 30.92C120.742 30.92 121.862 30.332 122.478 29.184H125.614C124.83 32.236 122.366 34.28 119.118 34.28ZM115.59 24.928H121.806C121.526 23.192 120.35 22.156 118.754 22.156C117.158 22.156 115.982 23.136 115.59 24.928ZM128.908 34V19.16H132.912V21.176C133.808 19.748 135.236 18.88 137.196 18.88C140.612 18.88 142.74 21.176 142.74 24.9V34H138.512V25.544C138.512 23.696 137.588 22.548 135.88 22.548C134.144 22.548 133.136 23.724 133.136 25.712V34H128.908Z" fill="white"/>
  <path d="M150.25 34V14.4H154.758V30.108H163.55V34H150.25Z" fill="#33E0D3"/>
</svg>
